<svg xmlns="http://www.w3.org/2000/svg" width="164" height="31" fill="none" aria-hidden="true" class="WorldCupHeader_logo_qatar__24wRL"><path fill="#fff" fill-rule="evenodd" d="M71.75 18.737c-1.123 0-1.588-1.507-1.588-5.646 0-2.165 1.04-2.713 4.024-2.713h2.026c-.986 2.96-2.272 8.359-4.462 8.359zm-6.076-2.85c-.028.96.082 1.89.301 2.823H50.18c-2.162 0-3.449-.466-3.449-2.412v-5.4h4.982a18.75 18.75 0 0 0 .822-3.507h-5.831c0-1.644.164-3.152.274-4.851a10.626 10.626 0 0 0-4.572 2.823V7.39H39.86c-.218 1.48-.218 2.576-.273 3.508h2.82v5.646c-.083.767 0 1.535.273 2.274.274.713.684 1.37 1.204 1.919a5.05 5.05 0 0 0 1.917 1.206 5.299 5.299 0 0 0 2.272.274h21.516c2.627 0 4.653-2.165 6.596-7.044v7.044h4.325V7.39c-1.943-.165-3.722-.274-5.666-.274-5.338.027-9.17 2.247-9.17 8.77zm22.637-1.644V12.79c0-1.81-.137-3.59-.41-5.372h-4.19c.138 1.891.275 3.508.275 5.372v9.428h4.325c0-5.29 1.697-11.292 6.186-10.634a30.165 30.165 0 0 0-.41-4.44c-3.285.274-4.873 3.18-5.776 7.099zm-59.345 4.494c-1.123 0-1.588-1.507-1.588-5.646 0-2.165 1.04-2.713 4.024-2.713h2.026c-.986 2.96-2.272 8.359-4.462 8.359zm-6.078-2.85c0 4.467 1.615 6.604 3.777 6.604 2.628 0 4.736-2.33 6.734-7.317v7.043h4.325V7.391c-1.943-.165-3.722-.274-5.639-.274-5.365.027-9.197 2.247-9.197 8.77zM163.344 9.09c0-3.673-2.546-5.92-7.145-5.92-1.889-.055-3.778.329-5.53 1.07a10.285 10.285 0 0 0-1.341 3.644 14.229 14.229 0 0 1 5.94-1.206c1.998 0 3.641.877 3.641 3.234s-1.615 4.33-10.238 9.428c0 .987.082 1.973.274 2.96h14.262a16.69 16.69 0 0 0 .793-3.508h-12.208c6.049-2.138 11.469-4.303 11.469-9.757l.083.055zm-150.53 9.071-.219-.137c-2.573-1.37-6.05-3.453-6.05-7.29a4.92 4.92 0 0 1 .247-2 4.364 4.364 0 0 1 1.067-1.727 4.608 4.608 0 0 1 3.668-1.425c3.039 0 4.846 2.165 4.846 5.837a8.906 8.906 0 0 1-1.095 3.727 9.264 9.264 0 0 1-2.519 2.933l.055.082zm8.268 4.33-7.09-3.782c4.024-1.452 6.98-4.33 6.98-8.413 0-5.482-4.106-8.277-9.444-8.277a8.67 8.67 0 0 0-3.64.548C6.71 3.006 5.642 3.663 4.766 4.54a8.619 8.619 0 0 0-2.08 3.043 9.14 9.14 0 0 0-.685 3.617c0 5.098 3.887 8.113 8.103 10.36l13.687 7.153c-.055-3.152-.466-4.96-2.765-6.221h.055zm100.817-1.616c-1.205 0-4.982-2.467-4.982-9.017a4.923 4.923 0 0 1 .273-2c.219-.659.603-1.234 1.068-1.727a5.322 5.322 0 0 1 1.642-1.179 5.02 5.02 0 0 1 1.999-.411c.684 0 1.368.137 1.998.411a4.765 4.765 0 0 1 1.67 1.179 5.364 5.364 0 0 1 1.067 1.726c.219.658.329 1.316.274 2-.164 6.551-3.86 9.018-5.064 9.018h.055zm0-17.76c-5.392 0-9.416 3.235-9.416 8.469a9.53 9.53 0 0 0 .301 4.029 9.453 9.453 0 0 0 1.943 3.563 9.708 9.708 0 0 0 3.23 2.439c1.232.576 2.601.85 3.942.85a9.702 9.702 0 0 0 3.942-.85 9.803 9.803 0 0 0 3.258-2.44c.903-1.014 1.56-2.247 1.943-3.562a9.563 9.563 0 0 0 .301-4.03c-.055-5.288-4.106-8.468-9.499-8.468h.055zm0 7.345a12.391 12.391 0 0 0-2.463 2.33 11.79 11.79 0 0 0 2.463 2.357 11.82 11.82 0 0 0 2.464-2.357 13.238 13.238 0 0 0-2.464-2.33zm24.691-1.425c0-3.672-2.545-5.92-7.117-5.92a13.18 13.18 0 0 0-5.529 1.07 10.29 10.29 0 0 0-1.342 3.644 15.148 15.148 0 0 1 5.94-1.205c2.026 0 3.641.876 3.641 3.234 0 2.356-1.588 4.33-10.238 9.427 0 .987.082 1.974.247 2.96h14.289c.41-1.123.657-2.302.794-3.508h-12.127c6.023-2.083 11.442-4.248 11.442-9.702zm-36.324 0c0-3.672-2.546-5.92-7.144-5.92a13.063 13.063 0 0 0-5.503 1.07 10.277 10.277 0 0 0-1.34 3.644 15.145 15.145 0 0 1 5.939-1.205c2.026 0 3.641.876 3.641 3.234 0 2.356-1.588 4.33-10.238 9.427 0 .987.082 1.974.274 2.96h14.234c.411-1.123.657-2.302.794-3.508H98.796c6.05-2.083 11.47-4.248 11.47-9.702z" clip-rule="evenodd"/></svg>